<svg width="41" height="41" viewBox="0 0 41 41" fill="none" xmlns="http://www.w3.org/2000/svg">
<path d="M14.8321 38.8241L18.6134 20.745L21.9242 19.7545L35.0131 32.7865" stroke="#474747" stroke-miterlimit="10" strokeLinecap="round" strokeLinejoin="round"/>
<path d="M22.566 36.5107L20.4953 22.4155L21.2685 22.1842L27.2789 35.1007" stroke="#474747" stroke-miterlimit="10" strokeLinecap="round" strokeLinejoin="round"/>
<path d="M13.4046 38.5176L11.7266 39.0196C11.3904 39.1202 11.0266 38.9788 10.8372 38.6738L7.3622 33.0788C7.07046 32.6091 7.02466 32.0252 7.23991 31.521L8.6061 28.3205C8.74339 27.999 9.18052 27.9727 9.36196 28.2751L12.0681 32.7862C12.2553 33.0982 12.6235 33.2448 12.9641 33.1429L14.6874 32.6273" stroke="#474747" stroke-miterlimit="10" strokeLinecap="round" strokeLinejoin="round"/>
<path d="M14.9887 28.7837L13.5105 29.226C13.1697 29.3279 12.8013 29.1812 12.6142 28.8689L10.5001 25.34C10.2201 24.8727 10.1803 24.2981 10.3936 23.8019L11.4399 21.3668C11.5828 21.0344 12.0408 21.0224 12.2089 21.3466L13.6052 24.0404C13.7815 24.3805 14.1675 24.5486 14.5259 24.4413L16.0158 23.9956" stroke="#474747" stroke-miterlimit="10" strokeLinecap="round" strokeLinejoin="round"/>
<path d="M10.2434 37.7178L13.6925 36.6859" stroke="#474747" stroke-miterlimit="10" strokeLinecap="round" strokeLinejoin="round"/>
<path d="M11.4924 31.7148L14.9416 30.683" stroke="#474747" stroke-miterlimit="10" strokeLinecap="round" strokeLinejoin="round"/>
<path d="M12.2064 28.1147L15.4363 27.1484" stroke="#474747" stroke-miterlimit="10" strokeLinecap="round" strokeLinejoin="round"/>
<path d="M13.2693 23.0854L16.4992 22.1191" stroke="#474747" stroke-miterlimit="10" strokeLinecap="round" strokeLinejoin="round"/>
<path d="M36.0927 31.7293L37.7707 31.2273C38.1069 31.1267 38.3333 30.8088 38.324 30.4498L38.1554 23.8656C38.1412 23.3129 37.8589 22.7998 37.402 22.4966L34.5027 20.5723C34.2113 20.379 33.8316 20.5971 33.8461 20.9495L34.062 26.2056C34.077 26.5691 33.8497 26.8938 33.5091 26.9957L31.7858 27.5113" stroke="#474747" stroke-miterlimit="10" strokeLinecap="round" strokeLinejoin="round"/>
<path d="M29.4233 24.4646L30.9015 24.0224C31.2423 23.9204 31.4696 23.5955 31.4544 23.2318L31.2831 19.1217C31.2605 18.5773 30.9781 18.0753 30.5274 17.7777L28.3156 16.3174C28.0137 16.1181 27.6243 16.3596 27.6619 16.7228L27.9744 19.7408C28.0139 20.1219 27.7836 20.4743 27.4251 20.5816L25.9353 21.0273" stroke="#474747" stroke-miterlimit="10" strokeLinecap="round" strokeLinejoin="round"/>
<path d="M38.2952 29.325L34.8461 30.3569" stroke="#474747" stroke-miterlimit="10" strokeLinecap="round" strokeLinejoin="round"/>
<path d="M33.9547 24.9945L30.5056 26.0264" stroke="#474747" stroke-miterlimit="10" strokeLinecap="round" strokeLinejoin="round"/>
<path d="M31.3808 22.3779L28.1509 23.3442" stroke="#474747" stroke-miterlimit="10" strokeLinecap="round" strokeLinejoin="round"/>
<path d="M27.7308 18.7593L24.5009 19.7256" stroke="#474747" stroke-miterlimit="10" strokeLinecap="round" strokeLinejoin="round"/>
<path d="M19.8189 10.005L15.0739 11.4245C14.4924 11.5985 13.88 11.2681 13.7061 10.6866C13.3537 9.50891 14.0228 8.26858 15.2005 7.91624L17.7865 7.14258C18.9642 6.79025 20.2045 7.45933 20.5569 8.63702C20.7308 9.21856 20.4004 9.83098 19.8189 10.005Z" stroke="#474747" stroke-miterlimit="10" strokeLinecap="round" strokeLinejoin="round"/>
<path d="M16.52 7.52163L15.8051 5.13184" stroke="#474747" stroke-miterlimit="10" strokeLinecap="round" strokeLinejoin="round"/>
<path d="M18.079 13.0605L18.6509 14.9724" stroke="#474747" stroke-miterlimit="10" strokeLinecap="round" strokeLinejoin="round"/>
<path d="M14.5799 13.2616L13.2932 15.3392" stroke="#474747" stroke-miterlimit="10" strokeLinecap="round" strokeLinejoin="round"/>
<path d="M21.2404 11.2681L23.4567 12.2976" stroke="#474747" stroke-miterlimit="10" strokeLinecap="round" strokeLinejoin="round"/>
</svg>
