<svg width="35" height="35" viewBox="0 0 35 35" fill="none" xmlns="http://www.w3.org/2000/svg">
<path d="M5.22887 14.2734C4.94499 14.1669 4.62849 14.3107 4.52198 14.5946C4.41547 14.8785 4.55926 15.195 4.84314 15.3015L20.2636 21.0873C20.5475 21.1938 20.864 21.05 20.9705 20.7661C21.0771 20.4823 20.9333 20.1658 20.6494 20.0592L5.22887 14.2734Z" fill="#365327"/>
<path d="M6.90002 14.9004L16.5569 18.5237C16.8408 18.6302 16.9846 18.9467 16.8781 19.2306L13.2137 28.9969C13.1072 29.2808 12.7907 29.4246 12.5068 29.3181L2.84994 25.6948C2.56606 25.5882 2.42226 25.2717 2.52877 24.9879L6.19312 15.2215C6.29963 14.9377 6.61614 14.7939 6.90002 14.9004ZM15.6572 19.3589L7.02832 16.1213L3.7497 24.8596L12.3785 28.0971L15.6572 19.3589Z" fill="#365327"/>
<path d="M25.7213 16.0368C25.4526 16.1764 25.348 16.5073 25.4875 16.776C25.627 17.0447 25.958 17.1494 26.2266 17.0098C26.4409 16.8985 26.6321 16.7994 26.7875 16.754C26.9073 16.7191 27.0261 16.7102 27.1569 16.7463C27.394 16.8116 27.5823 16.9668 27.695 17.165C27.8071 17.3624 27.8439 17.6032 27.7786 17.8402C27.6038 18.4826 27.381 19.4192 27.15 20.3899C26.8554 21.6282 26.5472 22.9234 26.3098 23.7194C26.2984 23.7577 26.2671 23.8114 26.253 23.8357C26.2421 23.8544 26.2339 23.8685 26.2282 23.8796C25.8885 24.5415 25.4087 24.9888 24.8488 25.2032C24.2848 25.4192 23.6217 25.4051 22.9212 25.1423L21.4999 24.609C20.8699 24.3726 20.4334 24.3891 19.9588 24.727C19.5899 24.9897 19.2587 25.4464 18.7631 26.1685L18.762 26.1678C18.7521 26.1822 18.743 26.1969 18.7347 26.2119L17.1036 28.8588C17.0254 28.9673 16.9119 29.0348 16.7909 29.0564C16.6661 29.0787 16.5324 29.0531 16.4194 28.9744C16.3071 28.8961 16.2373 28.7805 16.2152 28.657C16.193 28.5323 16.2185 28.3988 16.2969 28.286L16.2971 28.2861C16.3085 28.2698 16.3188 28.2531 16.3282 28.236L19.8578 22.8434L19.8587 22.8441C19.9743 22.6782 20.1551 22.5563 20.3572 22.4931C20.5563 22.4309 20.7719 22.4281 20.9614 22.4992L22.5139 23.0817C22.9484 23.2448 23.2351 23.3344 23.5577 23.2416C23.9144 23.1391 24.1204 22.8803 24.3166 22.3599L24.3186 22.3606C24.3256 22.3421 24.3315 22.3235 24.3363 22.3048L25.3512 19.4434C25.4529 19.159 25.3047 18.846 25.0202 18.7443C24.7358 18.6426 24.4228 18.7908 24.3211 19.0753L23.3052 21.9396C23.3002 21.9507 23.2955 21.9619 23.2911 21.9734L23.293 21.9741L23.2899 21.9829L23.2899 21.983C23.2347 22.1363 23.2924 22.179 23.2562 22.1894C23.2535 22.1901 23.1247 22.1381 22.8997 22.0537L21.3471 21.4712C20.9257 21.313 20.456 21.3161 20.0296 21.4494C19.6088 21.5808 19.2259 21.8414 18.9694 22.2009C18.9623 22.2103 18.9554 22.22 18.9489 22.2301L18.9503 22.231L15.412 27.6369C15.4066 27.6439 15.4014 27.651 15.3963 27.6583L15.3975 27.6591L15.3972 27.6595L15.3962 27.6589C15.1454 28.0187 15.0643 28.4467 15.1359 28.8476C15.2077 29.2498 15.4324 29.6242 15.7928 29.8754C16.1526 30.1262 16.5806 30.2073 16.9815 30.1357C17.377 30.0651 17.7456 29.8467 17.9966 29.4967C18.007 29.4829 18.0169 29.4685 18.0262 29.4535L17.5588 29.1655L18.0259 29.453L19.6818 26.7659L19.6817 26.7659C20.0984 26.1591 20.3702 25.7805 20.5947 25.6207C20.7164 25.534 20.8657 25.5438 21.1142 25.6371L22.5355 26.1703C23.4911 26.5289 24.4221 26.5379 25.2397 26.2248C26.0522 25.9137 26.7355 25.2906 27.2025 24.3826C27.2373 24.3228 27.3123 24.1933 27.3594 24.0354C27.5944 23.2475 27.9113 21.9158 28.2142 20.6426C28.4427 19.6824 28.6631 18.756 28.8333 18.1306C28.9786 17.6028 28.896 17.0654 28.6448 16.6235C28.3942 16.1825 27.9752 15.8369 27.4473 15.6916C27.0949 15.5946 26.7857 15.6152 26.4804 15.7043C26.2107 15.783 25.9795 15.9026 25.7213 16.0368Z" fill="#365327"/>
<path d="M28.5665 10.6543C29.1856 10.8866 29.652 11.3479 29.9055 11.906C30.1591 12.464 30.1997 13.1187 29.9674 13.7379C29.7351 14.357 29.2738 14.8234 28.7158 15.0769C28.1578 15.3304 27.503 15.3711 26.8839 15.1388C26.2648 14.9065 25.7984 14.4452 25.5448 13.8871C25.2913 13.3291 25.2506 12.6744 25.4829 12.0553C25.7152 11.4361 26.1765 10.9697 26.7346 10.7162C27.2926 10.4627 27.9474 10.422 28.5665 10.6543ZM28.9059 12.3601C28.7687 12.058 28.5161 11.8082 28.1808 11.6824C27.8454 11.5565 27.4908 11.5785 27.1887 11.7158C26.8866 11.853 26.6368 12.1056 26.511 12.441C26.3851 12.7763 26.4072 13.1309 26.5444 13.433C26.6817 13.7351 26.9343 13.9849 27.2696 14.1108C27.605 14.2366 27.9595 14.2146 28.2616 14.0773C28.5637 13.9401 28.8136 13.6875 28.9394 13.3521C29.0652 13.0168 29.0432 12.6622 28.9059 12.3601Z" fill="#365327"/>
<path d="M26.025 17.1101C26.2971 16.9782 26.4108 16.6506 26.2789 16.3785C26.147 16.1063 25.8194 15.9927 25.5473 16.1246L23.3627 17.177L20.0986 16.5919L20.0986 16.5918C19.716 16.4978 19.3312 16.568 19.0185 16.7574C18.7064 16.9465 18.4664 17.2546 18.3726 17.6368C18.2786 18.0194 18.3488 18.4042 18.5383 18.7169C18.7273 19.029 19.0354 19.269 19.4176 19.3628L19.5487 18.8302L19.4177 19.3634C19.4356 19.3678 19.4535 19.3712 19.4714 19.3738L22.6744 20.1229L22.6742 20.1236L22.7031 20.1318L22.7031 20.1318L22.7036 20.1319C22.9623 20.204 23.186 20.2263 23.3975 20.2083C23.6266 20.1889 23.8254 20.1247 24.0254 20.0266L26.2982 18.9139C26.5696 18.7805 26.6815 18.4522 26.5481 18.1808C26.4146 17.9094 26.0863 17.7975 25.8149 17.9309L23.5421 19.0436C23.4597 19.084 23.3841 19.11 23.3078 19.1164C23.2264 19.1233 23.1288 19.1116 23.0033 19.0769C22.987 19.0714 22.9703 19.0667 22.9532 19.0627L22.9527 19.0647L19.7204 18.3087C19.707 18.3043 19.6934 18.3004 19.6796 18.297L19.6795 18.2975C19.5908 18.2757 19.5194 18.22 19.4756 18.1478C19.4321 18.076 19.4161 17.9874 19.4378 17.899C19.4596 17.8102 19.5153 17.7386 19.5876 17.6948C19.6557 17.6536 19.739 17.637 19.8228 17.654C19.8384 17.6582 19.8543 17.6618 19.8706 17.6648L19.8709 17.663L23.3019 18.2781C23.4237 18.3101 23.5571 18.3006 23.6794 18.2417L23.4412 17.7471L23.68 18.2398L26.025 17.1101Z" fill="#365327"/>
<path d="M29.7585 22.3433C29.8834 22.0676 29.7612 21.7428 29.4855 21.6179C29.2098 21.4929 28.885 21.6151 28.76 21.8908L26.7025 26.4195L26.6973 26.4296L26.697 26.4295L26.6943 26.4356C26.3222 27.1607 26.0186 27.5286 25.7152 27.6554C25.4448 27.7683 25.0906 27.6881 24.621 27.5119C24.603 27.5052 24.5848 27.4994 24.5666 27.4946L21.0514 26.241C20.767 26.1393 20.454 26.2875 20.3523 26.5719C20.2506 26.8563 20.3988 27.1693 20.6832 27.271L24.1995 28.5251C24.2112 28.5304 24.2231 28.5354 24.2353 28.54C24.9552 28.8101 25.5426 28.9146 26.1377 28.666C26.69 28.4352 27.168 27.9115 27.6693 26.9362C27.6792 26.9193 27.6884 26.9018 27.6967 26.8836L27.1968 26.6565L27.696 26.8828L29.7585 22.3433Z" fill="#365327"/>
<path d="M23.989 28.349C24.0955 28.0651 23.9517 27.7486 23.6678 27.6421C23.384 27.5356 23.0675 27.6794 22.9609 27.9632L21.8038 31.0473C21.6973 31.3312 21.8411 31.6477 22.1249 31.7542C22.4088 31.8608 22.7253 31.717 22.8318 31.4331L23.989 28.349Z" fill="#365327"/>
<path d="M19.1241 31.2744C18.8225 31.3029 18.601 31.5706 18.6295 31.8722C18.658 32.1739 18.9257 32.3953 19.2273 32.3668L21.9943 32.1031L23.9048 34.1218C24.1133 34.3417 24.4605 34.351 24.6804 34.1425C24.9003 33.9341 24.9096 33.5868 24.7011 33.3669L22.6213 31.1694C22.5089 31.0416 22.339 30.9676 22.1566 30.985L22.1566 30.9854L19.1241 31.2744Z" fill="#365327"/>
<path d="M11.8724 15.3208C11.5885 15.2143 11.272 15.3581 11.1655 15.642C11.059 15.9258 11.2028 16.2423 11.4867 16.3489L15.0848 17.6989C15.3687 17.8054 15.6852 17.6616 15.7917 17.3777C15.8982 17.0938 15.7544 16.7773 15.4705 16.6708L11.8724 15.3208Z" fill="#365327"/>
<path d="M12.3221 14.1221C12.0383 14.0156 11.7218 14.1593 11.6152 14.4432C11.5087 14.7271 11.6525 15.0436 11.9364 15.1501L15.5345 16.5001C15.8184 16.6067 16.1349 16.4629 16.2414 16.179C16.3479 15.8951 16.2041 15.5786 15.9202 15.4721L12.3221 14.1221Z" fill="#365327"/>
<path d="M14.1598 2.29845C15.3759 2.75474 16.292 3.66085 16.7899 4.75688C17.2879 5.85292 17.3678 7.13898 16.9115 8.35508C16.4552 9.57119 15.5491 10.4873 14.4531 10.9852C13.357 11.4832 12.071 11.5631 10.8549 11.1068C9.63876 10.6505 8.72266 9.74437 8.2247 8.64834C7.72674 7.55231 7.64687 6.26628 8.10316 5.05017C8.55945 3.83406 9.46556 2.91795 10.5616 2.41999C11.6576 1.92203 12.9437 1.84217 14.1598 2.29845ZM15.7904 5.21102C15.4087 4.37091 14.7064 3.67633 13.7741 3.32651C12.8417 2.97669 11.8558 3.03787 11.0157 3.41956C10.1756 3.80125 9.48103 4.50355 9.13121 5.4359C8.78139 6.36824 8.84258 7.35409 9.22427 8.19421C9.60596 9.03432 10.3083 9.72893 11.2406 10.0787C12.1729 10.4286 13.1588 10.3674 13.9989 9.98567C14.839 9.60398 15.5336 8.9017 15.8835 7.96936C16.2333 7.03701 16.1721 6.05114 15.7904 5.21102Z" fill="#365327"/>
<path d="M14.4196 7.5906C14.7212 7.60257 14.9755 7.36774 14.9875 7.06609C14.9994 6.76445 14.7646 6.51021 14.4629 6.49823L12.9633 6.44241L12.8685 4.58958C12.8527 4.28767 12.5952 4.05568 12.2933 4.07141C11.9913 4.08715 11.7594 4.3447 11.7751 4.64662L11.8934 6.95694C11.8862 7.25668 12.1213 7.50745 12.4218 7.51865L12.4219 7.51626L14.4196 7.5906Z" fill="#365327"/>
</svg>
