<svg width="20" height="20" viewBox="0 0 20 20" fill="none" xmlns="http://www.w3.org/2000/svg"><path d="M7.54437 13.9062H2.5C1.81062 13.9062 1.25 13.3456 1.25 12.6562V12.2344C1.25 12.0619 1.39 11.9219 1.5625 11.9219H8.62344C8.79594 11.9219 8.93594 12.0619 8.93594 12.2344C8.93594 12.4069 8.79594 12.5469 8.62344 12.5469H1.875V12.6562C1.875 13.0009 2.15531 13.2812 2.5 13.2812H7.54437C7.71688 13.2812 7.85687 13.4212 7.85687 13.5937C7.85687 13.7662 7.71688 13.9062 7.54437 13.9062Z" fill="#F9F8F6"></path><path d="M1.5625 12.547C1.39 12.547 1.25 12.407 1.25 12.2345V5.71887C1.25 5.0295 1.81062 4.46887 2.5 4.46887H11.3406C12.03 4.46887 12.5906 5.0295 12.5906 5.71887C12.5906 5.89137 12.4506 6.03137 12.2781 6.03137C12.1056 6.03137 11.9656 5.89137 11.9656 5.71887C11.9656 5.37418 11.6853 5.09387 11.3406 5.09387H2.5C2.15531 5.09387 1.875 5.37418 1.875 5.71887V12.2345C1.875 12.407 1.735 12.547 1.5625 12.547Z" fill="#F9F8F6"></path><path d="M6.92031 16.1075H3.4375C3.265 16.1075 3.125 15.9675 3.125 15.795C3.125 15.6225 3.265 15.4825 3.4375 15.4825H6.92031C7.09281 15.4825 7.23281 15.6225 7.23281 15.795C7.23281 15.9675 7.09281 16.1075 6.92031 16.1075Z" fill="#F9F8F6"></path><path d="M4.80651 16.1075C4.7837 16.1075 4.76089 16.105 4.73745 16.1C4.56901 16.0622 4.46339 15.895 4.5012 15.7266L4.99651 13.5253C5.03433 13.3569 5.20151 13.2519 5.36995 13.2891C5.53839 13.3269 5.64401 13.4941 5.6062 13.6625L5.11089 15.8638C5.07839 16.0091 4.94964 16.1075 4.80651 16.1075Z" fill="#F9F8F6"></path><path d="M5.65186 8.59068L5.53404 8.13318C5.45842 7.83974 5.28154 7.59537 5.04873 7.42755C5.15061 7.28193 5.21154 7.10537 5.21154 6.91443C5.21154 6.41912 4.80842 6.01599 4.31311 6.01599C3.81779 6.01599 3.41467 6.41912 3.41467 6.91443C3.41467 7.10537 3.47561 7.28193 3.57779 7.42787C3.34498 7.59568 3.16842 7.84005 3.09279 8.13349L2.97498 8.59099C2.95092 8.68443 2.97123 8.78412 3.03061 8.86037C3.08967 8.93693 3.18092 8.98162 3.27779 8.98162H5.34936C5.44592 8.98162 5.53717 8.93693 5.59654 8.86037C5.65561 8.78412 5.67623 8.68474 5.65217 8.59099L5.65186 8.59068Z" fill="#F9F8F6"></path><path d="M5.65254 12.1556L5.53441 11.7012C5.45973 11.4065 5.28285 11.1612 5.0491 10.9931C5.15098 10.8475 5.21191 10.6709 5.21191 10.48C5.21191 9.98467 4.80879 9.58154 4.31348 9.58154C3.81816 9.58154 3.41504 9.98467 3.41504 10.48C3.41504 10.6712 3.47598 10.8475 3.57816 10.9934C3.56535 11.0028 3.55066 11.0097 3.53816 11.0197C3.31973 11.1912 3.16191 11.4334 3.09441 11.6994L2.97566 12.1556C2.95129 12.2494 2.9716 12.349 3.03098 12.4256C3.09004 12.5022 3.18129 12.5469 3.27816 12.5469H5.35004C5.44691 12.5469 5.53816 12.5019 5.59723 12.4256C5.65629 12.349 5.67691 12.2494 5.65254 12.1556Z" fill="#F9F8F6"></path><path d="M6.92151 12.466C6.74901 12.466 6.60901 12.326 6.60901 12.1535V4.78064C6.60901 4.60814 6.74901 4.46814 6.92151 4.46814C7.09401 4.46814 7.23401 4.60814 7.23401 4.78064V12.1535C7.23401 12.326 7.09401 12.466 6.92151 12.466Z" fill="#F9F8F6"></path><path d="M6.9216 8.98096H1.56348C1.39098 8.98096 1.25098 8.84096 1.25098 8.66846C1.25098 8.49596 1.39098 8.35596 1.56348 8.35596H6.9216C7.0941 8.35596 7.2341 8.49596 7.2341 8.66846C7.2341 8.84096 7.0941 8.98096 6.9216 8.98096Z" fill="#F9F8F6"></path><path d="M18.0574 14.5887C17.8131 13.2256 16.7409 12.1925 15.4134 11.9675C15.9287 11.4097 16.2212 10.6769 16.2212 9.89435C16.2212 8.20279 14.8449 6.82654 13.1537 6.82654C11.4624 6.82654 10.0859 8.20279 10.0859 9.89435C10.0859 10.6769 10.3787 11.4097 10.8937 11.9675C9.99557 12.1187 9.20151 12.6403 8.70526 13.4253C8.47619 13.7834 8.32244 14.1747 8.24838 14.589L7.56119 18.3818C7.54463 18.4731 7.56932 18.5668 7.62869 18.6378C7.68807 18.709 7.77588 18.75 7.86869 18.75H18.4374C18.5299 18.75 18.6181 18.709 18.6774 18.6378C18.7368 18.5665 18.7615 18.4728 18.7449 18.3818L18.0574 14.5887Z" fill="#F9F8F6"></path><path d="M10.2815 17.8126C10.263 17.8126 10.2443 17.8111 10.2255 17.8076C10.0558 17.777 9.94302 17.6142 9.97364 17.4445L10.408 15.0445C10.4386 14.8748 10.6002 14.7611 10.7711 14.7926C10.9408 14.8232 11.0536 14.9861 11.023 15.1557L10.5886 17.5557C10.5615 17.7067 10.4299 17.8126 10.2815 17.8126Z" fill="#365327"></path><path d="M16.0258 17.8125C15.8774 17.8125 15.7458 17.7065 15.7187 17.5556L15.2843 15.1556C15.2533 14.9859 15.3662 14.8231 15.5362 14.7925C15.7071 14.7606 15.8687 14.8746 15.8993 15.0443L16.3337 17.4443C16.3646 17.614 16.2518 17.7768 16.0818 17.8075C16.0627 17.8109 16.0443 17.8125 16.0258 17.8125Z" fill="#365327"></path><path d="M13.1541 12.9031C12.9481 12.9031 12.7428 12.8734 12.5609 12.8178C12.3959 12.7668 12.3034 12.5921 12.3541 12.4271C12.405 12.2621 12.5794 12.1693 12.7447 12.2203C12.9912 12.2962 13.3162 12.2962 13.5653 12.2203C13.73 12.1693 13.905 12.2631 13.9556 12.4281C14.0059 12.5931 13.9128 12.7678 13.7478 12.8184C13.5622 12.875 13.3625 12.9037 13.1541 12.9037V12.9031Z" fill="#365327"></path><path d="M7.3103 3.96937H6.53217C5.78249 3.96937 5.17249 3.35938 5.17249 2.60969C5.17249 1.86 5.78249 1.25 6.53217 1.25H7.3103C8.05999 1.25 8.66999 1.86 8.66999 2.60969C8.66999 3.35938 8.05999 3.96937 7.3103 3.96937ZM6.53217 1.875C6.12717 1.875 5.79749 2.20469 5.79749 2.60969C5.79749 3.01469 6.12717 3.34437 6.53217 3.34437H7.3103C7.7153 3.34437 8.04499 3.01469 8.04499 2.60969C8.04499 2.20469 7.7153 1.875 7.3103 1.875H6.53217Z" fill="#F9F8F6"></path><path d="M8.62343 5.0931H5.22031C5.09906 5.0931 4.98874 5.0231 4.93749 4.91341C4.88624 4.80372 4.90249 4.67404 4.97999 4.58091L5.95812 3.40372C6.06843 3.27122 6.26531 3.25279 6.39812 3.3631C6.53093 3.47341 6.54906 3.67029 6.43874 3.8031L5.88624 4.4681H7.95718L7.40187 3.8006C7.29156 3.66779 7.30968 3.47091 7.44218 3.36029C7.57468 3.24966 7.77187 3.26779 7.88249 3.4006L8.86374 4.58029C8.94124 4.67341 8.95781 4.8031 8.90624 4.91279C8.85468 5.02247 8.74437 5.09247 8.62343 5.09247V5.0931Z" fill="#F9F8F6"></path><path d="M7.01123 2.92224H6.83154C6.65904 2.92224 6.51904 2.78224 6.51904 2.60974C6.51904 2.43724 6.65904 2.29724 6.83154 2.29724H7.01123C7.18373 2.29724 7.32373 2.43724 7.32373 2.60974C7.32373 2.78224 7.18373 2.92224 7.01123 2.92224Z" fill="#F9F8F6"></path><path d="M17.0803 16.875H15.8566C15.6841 16.875 15.5441 16.735 15.5441 16.5625C15.5441 16.39 15.6841 16.25 15.8566 16.25H17.0803C17.2528 16.25 17.3928 16.39 17.3928 16.5625C17.3928 16.735 17.2528 16.875 17.0803 16.875Z" fill="#365327"></path><path d="M10.4465 16.875H9.22278C9.05028 16.875 8.91028 16.735 8.91028 16.5625C8.91028 16.39 9.05028 16.25 9.22278 16.25H10.4465C10.619 16.25 10.759 16.39 10.759 16.5625C10.759 16.735 10.619 16.875 10.4465 16.875Z" fill="#365327"></path></svg>