<svg width="24" height="24" viewBox="0 0 24 24" fill="none" xmlns="http://www.w3.org/2000/svg"><path fill-rule="evenodd" clip-rule="evenodd" d="M6.74995 9.81595L3.34194 15.7192C3.04344 16.236 2.96245 16.8502 3.11695 17.4269C3.27145 18.0029 3.64869 18.495 4.16544 18.7927L6.74995 20.2852C6.7597 20.8694 6.9952 21.4275 7.4092 21.8407C7.8307 22.263 8.40295 22.5 8.99995 22.5H17.9999C18.5969 22.5 19.1692 22.263 19.5907 21.8407C20.013 21.4192 20.2499 20.847 20.2499 20.25V8.81995C20.2499 8.26945 20.0475 7.73695 19.6815 7.3252L15.1815 2.2627C14.7547 1.7827 14.1427 1.50745 13.4999 1.50745C12.8572 1.50745 12.2452 1.7827 11.8184 2.2627C10.4489 3.8032 8.20645 6.32695 7.31845 7.3252C6.95245 7.73695 6.74995 8.26945 6.74995 8.81995V9.81595ZM8.24995 20.25V8.81995C8.24995 8.6362 8.31744 8.4592 8.43969 8.32195L12.9397 3.25945C13.0814 3.0997 13.2854 3.00745 13.4999 3.00745C13.7144 3.00745 13.9185 3.0997 14.0602 3.25945L18.5602 8.32195C18.6825 8.4592 18.7499 8.6362 18.7499 8.81995V20.25C18.7499 20.4487 18.6712 20.64 18.5302 20.7802C18.3899 20.9212 18.1987 21 17.9999 21H8.99995C8.8012 21 8.60995 20.9212 8.4697 20.7802C8.3287 20.64 8.24995 20.4487 8.24995 20.25ZM6.74995 12.816L4.64094 16.4692C4.54119 16.6417 4.51421 16.8464 4.56596 17.0384C4.61771 17.2304 4.74294 17.3947 4.91544 17.4937L6.74995 18.5535V12.816Z" fill="#365327"></path><path fill-rule="evenodd" clip-rule="evenodd" d="M13.5 6.75C12.258 6.75 11.25 7.758 11.25 9C11.25 10.242 12.258 11.25 13.5 11.25C14.742 11.25 15.75 10.242 15.75 9C15.75 7.758 14.742 6.75 13.5 6.75ZM13.5 8.25C13.914 8.25 14.25 8.586 14.25 9C14.25 9.414 13.914 9.75 13.5 9.75C13.086 9.75 12.75 9.414 12.75 9C12.75 8.586 13.086 8.25 13.5 8.25Z" fill="#B49D97"></path></svg>