<svg width="20" height="20" viewBox="0 0 20 20" fill="none" xmlns="http://www.w3.org/2000/svg"><path d="M18.4375 10.8437H10.6153C10.4425 10.8437 10.3028 10.7037 10.3028 10.5312C10.3028 10.3587 10.4425 10.2187 10.6153 10.2187H18.125V9.24683H10.6116C10.4388 9.24683 10.2991 9.10683 10.2991 8.93433C10.2991 8.76183 10.4388 8.62183 10.6116 8.62183H18.4375C18.6103 8.62183 18.75 8.76183 18.75 8.93433V10.5312C18.75 10.7037 18.6103 10.8437 18.4375 10.8437Z" fill="#F9F8F6"></path><path d="M3.4375 10.8437H1.5625C1.38969 10.8437 1.25 10.7037 1.25 10.5312V8.93433C1.25 8.76183 1.38969 8.62183 1.5625 8.62183H3.43875C3.61156 8.62183 3.75125 8.76183 3.75125 8.93433C3.75125 9.10683 3.61156 9.24683 3.43875 9.24683H1.875V10.2187H3.4375C3.61031 10.2187 3.75 10.3587 3.75 10.5312C3.75 10.7037 3.61031 10.8437 3.4375 10.8437Z" fill="#F9F8F6"></path><path d="M16.8759 9.24688H12.5593C12.4537 9.24688 12.3552 9.19345 12.2974 9.1047C12.2396 9.01626 12.2306 8.90438 12.2737 8.80782L13.0187 7.12563C13.0687 7.01251 13.1809 6.9397 13.3043 6.9397H16.1312C16.2549 6.9397 16.3668 7.01251 16.4168 7.12563L17.1618 8.80782C17.2049 8.90438 17.1956 9.01626 17.1381 9.1047C17.0802 9.19345 16.9818 9.24688 16.8762 9.24688H16.8759ZM13.0393 8.62188H16.3959L15.9277 7.5647H13.5074L13.0393 8.62188Z" fill="#F9F8F6"></path><path d="M18.75 2.14687V5.65938H10.6843V2.14687C10.6843 1.65312 11.0875 1.25 11.5812 1.25H17.8531C18.3468 1.25 18.75 1.65312 18.75 2.14687Z" fill="#F9F8F6"></path><path d="M10.6843 6.28442H18.75V6.6688C18.75 7.16255 18.3468 7.56567 17.8531 7.56567H11.5812C11.0875 7.56567 10.6843 7.16255 10.6843 6.6688V6.28442Z" fill="#F9F8F6"></path><path d="M2.5 17.8122C2.32719 17.8122 2.1875 17.6722 2.1875 17.4997V10.5312C2.1875 10.3588 2.32719 10.2188 2.5 10.2188C2.67281 10.2188 2.8125 10.3588 2.8125 10.5312V17.4997C2.8125 17.6722 2.67281 17.8122 2.5 17.8122Z" fill="#F9F8F6"></path><path d="M17.7859 17.8122H11.865C11.6922 17.8122 11.5525 17.6722 11.5525 17.4997V10.53C11.5525 10.3575 11.6922 10.2175 11.865 10.2175H17.7859C17.9587 10.2175 18.0984 10.3575 18.0984 10.53V17.4997C18.0984 17.6722 17.9587 17.8122 17.7859 17.8122ZM12.1775 17.1872H17.4734V10.8425H12.1775V17.1872Z" fill="#F9F8F6"></path><path d="M17.7859 13.1666H11.865C11.6922 13.1666 11.5525 13.0266 11.5525 12.8541C11.5525 12.6816 11.6922 12.5416 11.865 12.5416H17.7859C17.9587 12.5416 18.0984 12.6816 18.0984 12.8541C18.0984 13.0266 17.9587 13.1666 17.7859 13.1666Z" fill="#F9F8F6"></path><path d="M17.7859 15.4894H11.865C11.6922 15.4894 11.5525 15.3494 11.5525 15.1769C11.5525 15.0044 11.6922 14.8644 11.865 14.8644H17.7859C17.9587 14.8644 18.0984 15.0044 18.0984 15.1769C18.0984 15.3494 17.9587 15.4894 17.7859 15.4894Z" fill="#F9F8F6"></path><path d="M14.9153 11.9547H14.4581C14.2853 11.9547 14.1456 11.8147 14.1456 11.6422C14.1456 11.4697 14.2853 11.3297 14.4581 11.3297H14.9153C15.0881 11.3297 15.2278 11.4697 15.2278 11.6422C15.2278 11.8147 15.0881 11.9547 14.9153 11.9547Z" fill="#F9F8F6"></path><path d="M14.9153 14.3273H14.4581C14.2853 14.3273 14.1456 14.1873 14.1456 14.0148C14.1456 13.8423 14.2853 13.7023 14.4581 13.7023H14.9153C15.0881 13.7023 15.2278 13.8423 15.2278 14.0148C15.2278 14.1873 15.0881 14.3273 14.9153 14.3273Z" fill="#F9F8F6"></path><path d="M14.9153 16.6997H14.4581C14.2853 16.6997 14.1456 16.5597 14.1456 16.3872C14.1456 16.2147 14.2853 16.0747 14.4581 16.0747H14.9153C15.0881 16.0747 15.2278 16.2147 15.2278 16.3872C15.2278 16.5597 15.0881 16.6997 14.9153 16.6997Z" fill="#F9F8F6"></path><path d="M9.59811 16.4503L7.33749 15.994V13.1781H8.48343C9.46093 13.1781 10.2559 12.3831 10.2559 11.4056C10.2559 11.2331 10.1162 11.0931 9.94343 11.0931H7.33749V10.4859H8.4053C9.20124 10.4859 9.84874 9.83839 9.84874 9.04246V6.61464C9.84874 5.05777 8.58186 3.79089 7.02499 3.79089C5.46812 3.79089 4.20155 5.05746 4.20155 6.61464V9.04246C4.20155 9.83839 4.84905 10.4859 5.64499 10.4859H6.71249V11.0931H4.10718C3.93437 11.0931 3.79468 11.2331 3.79468 11.4056C3.79468 12.3828 4.58968 13.1781 5.56686 13.1781H6.71249V15.9943L4.45218 16.4506C4.30655 16.48 4.20155 16.6081 4.20155 16.7568V17.5C4.20155 17.6725 4.34124 17.8125 4.51405 17.8125C4.68687 17.8125 4.82655 17.6725 4.82655 17.5V17.0125L6.71249 16.6315V17.5C6.71249 17.6725 6.85218 17.8125 7.02499 17.8125C7.1978 17.8125 7.33749 17.6725 7.33749 17.5V16.6315L9.22374 17.0125V17.5C9.22374 17.6725 9.36343 17.8125 9.53624 17.8125C9.70905 17.8125 9.84874 17.6725 9.84874 17.5V16.7568C9.84874 16.6081 9.74374 16.4796 9.59811 16.4503Z" fill="#F9F8F6"></path></svg>