<svg width="20" height="20" viewBox="0 0 20 20" fill="none" xmlns="http://www.w3.org/2000/svg"><path d="M8.25635 9.77188C7.4601 9.77188 6.68385 9.59625 6.00291 9.2625L4.48354 9.70031C4.38072 9.73 4.26885 9.70469 4.18854 9.63281C4.10854 9.56125 4.07072 9.45313 4.08885 9.34719L4.33416 7.91625C3.79197 7.20969 3.50635 6.38188 3.50635 5.5125C3.50635 3.16219 5.63729 1.25 8.25635 1.25C9.75041 1.25 11.1754 1.89031 12.0685 2.9625C12.1792 3.09531 12.161 3.29219 12.0285 3.40281C11.8954 3.51281 11.6988 3.495 11.5882 3.36281C10.8126 2.43125 9.56697 1.87531 8.25635 1.87531C5.98166 1.87531 4.13135 3.50719 4.13135 5.51281C4.13135 6.2825 4.39947 7.01594 4.90729 7.63313C4.9651 7.70344 4.98916 7.795 4.97385 7.88438L4.78916 8.96219L5.94791 8.62813C6.02541 8.60594 6.10822 8.61438 6.17947 8.65156C6.79791 8.97594 7.51604 9.14719 8.25635 9.14719C8.88104 9.14719 9.47822 9.02844 10.0313 8.79375C10.2288 8.71031 10.4673 8.86688 10.4673 9.08156C10.4673 9.22094 10.377 9.33875 10.2517 9.37938C9.62729 9.64 8.95635 9.77188 8.25635 9.77188Z" fill="#1A2921"></path><path d="M14.6719 7.74685L14.9781 9.31873L13.5563 8.97498C12.9875 9.46248 11.0969 9.7281 10.1562 9.08123C11.6594 8.44685 12.7 7.08748 12.7 5.51248C12.7 4.63123 12.375 3.81873 11.8281 3.16248C13.9625 3.16248 15.2656 5.34998 14.95 6.94685C14.8938 7.23123 14.8 7.49998 14.6719 7.74685Z" fill="#1A2921"></path><path d="M15.0001 7.7906C15.1157 7.54373 15.2032 7.28123 15.2563 7.00623C15.4438 6.0656 15.1313 4.95623 14.4407 4.11873C13.8001 3.3406 12.9282 2.89373 11.9719 2.85623C11.9251 2.84998 11.8782 2.84998 11.8282 2.84998C11.7063 2.84998 11.5969 2.91873 11.5438 3.03123C11.4938 3.1406 11.5094 3.26873 11.5876 3.36248C12.1126 3.9906 12.3876 4.73435 12.3876 5.51248C12.3876 6.89998 11.4688 8.18748 10.0407 8.7906C10.0376 8.7906 10.0344 8.7906 10.0313 8.79373C9.97818 8.81873 9.93755 8.8531 9.90318 8.89685C9.87193 8.9406 9.85005 8.99373 9.84693 9.04998C9.8438 9.08748 9.84693 9.12185 9.85318 9.15935C9.85943 9.18123 9.86568 9.2031 9.87505 9.22498L9.8813 9.23123C9.90318 9.27185 9.93755 9.30935 9.97818 9.33747C9.99068 9.34685 10.0032 9.3531 10.0157 9.35935C10.0219 9.3656 10.0251 9.3656 10.0313 9.36873C10.0594 9.3906 10.0938 9.40935 10.1251 9.4281C10.5626 9.67498 11.1251 9.7781 11.6844 9.7781C12.4438 9.7781 13.2001 9.58748 13.6251 9.31248L14.9063 9.62185C15.0063 9.64685 15.1188 9.61873 15.1938 9.54373C15.2719 9.47185 15.3063 9.36247 15.2844 9.25935L15.0001 7.7906ZM13.3532 8.73748C12.9969 9.04373 11.7782 9.28748 10.8844 9.06248C12.1969 8.2781 13.0126 6.94373 13.0126 5.51248C13.0126 4.82185 12.8313 4.15623 12.4844 3.55623C13.0469 3.69998 13.5563 4.0281 13.9594 4.5156C14.5219 5.2031 14.7907 6.13435 14.6438 6.88748C14.5938 7.1406 14.5094 7.38123 14.3938 7.6031C14.3626 7.6656 14.3532 7.73748 14.3657 7.80623L14.5782 8.89998L13.6282 8.67185C13.5313 8.64685 13.4282 8.67185 13.3532 8.73748Z" fill="#1A2921"></path><path d="M10.1564 9.3938H10.1533C9.98082 9.3938 9.84082 9.2538 9.84082 9.0813C9.84082 8.9088 9.98082 8.7688 10.1533 8.7688C10.3258 8.7688 10.4674 8.9088 10.4674 9.0813C10.4674 9.2538 10.3289 9.3938 10.1564 9.3938Z" fill="#1A2921"></path><path d="M6.28857 6.14815C6.11607 6.14815 5.97607 6.00815 5.97607 5.83565V5.18628C5.97607 5.01378 6.11607 4.87378 6.28857 4.87378C6.46107 4.87378 6.60107 5.01378 6.60107 5.18628V5.83565C6.60107 6.00815 6.46107 6.14815 6.28857 6.14815Z" fill="#1A2921"></path><path d="M8.25854 6.14815C8.08604 6.14815 7.94604 6.00815 7.94604 5.83565V5.18628C7.94604 5.01378 8.08604 4.87378 8.25854 4.87378C8.43104 4.87378 8.57104 5.01378 8.57104 5.18628V5.83565C8.57104 6.00815 8.43104 6.14815 8.25854 6.14815Z" fill="#1A2921"></path><path d="M10.2285 6.14815C10.056 6.14815 9.91602 6.00815 9.91602 5.83565V5.18628C9.91602 5.01378 10.056 4.87378 10.2285 4.87378C10.401 4.87378 10.541 5.01378 10.541 5.18628V5.83565C10.541 6.00815 10.401 6.14815 10.2285 6.14815Z" fill="#1A2921"></path><path d="M2.43442 17.8125C1.78317 17.8125 1.25317 17.1859 1.25317 16.4153C1.25317 14.5709 2.48317 13.0703 3.99474 13.0703H4.11036C4.28286 13.0703 4.42286 13.2103 4.42286 13.3828C4.42286 13.5553 4.28286 13.6953 4.11036 13.6953H3.99474C2.82755 13.6953 1.87817 14.9156 1.87817 16.4153C1.87817 16.8338 2.13286 17.1875 2.43442 17.1875C2.60692 17.1875 2.74692 17.3275 2.74692 17.5C2.74692 17.6725 2.60692 17.8125 2.43442 17.8125Z" fill="#1A2921"></path><path d="M5.55932 11.0031C5.23745 10.5156 4.69682 10.225 4.11245 10.225H4.1062C3.4062 10.225 2.78432 10.6187 2.52807 11.225C2.28432 11.8031 2.33432 12.4219 2.66245 12.9187C2.75932 13.0656 2.87495 13.1906 3.0062 13.2968C3.31245 13.5531 3.69995 13.6969 4.10932 13.6969H4.11557C4.8187 13.6969 5.43745 13.3031 5.69682 12.6937C5.94057 12.1156 5.89057 11.5 5.55932 11.0031ZM5.1187 12.45C4.96245 12.8219 4.55932 13.0719 4.10932 13.0719C3.73745 13.0719 3.39057 12.8844 3.18432 12.5719C2.97182 12.2531 2.9437 11.85 3.10307 11.4687C3.25932 11.1 3.66245 10.85 4.1062 10.85H4.11245C4.48745 10.85 4.83432 11.0344 5.04057 11.3469C5.25307 11.6687 5.2812 12.0687 5.1187 12.45Z" fill="#1A2921"></path><path d="M8.55152 17.5H5.01465L5.91715 14.2025H9.45402L8.55152 17.5Z" fill="#7C9A82"></path><path d="M9.70307 14.0125C9.6437 13.9344 9.54995 13.8906 9.45307 13.8906H5.9187C5.77495 13.8906 5.65307 13.9844 5.61557 14.1187L4.77495 17.1875L4.71245 17.4188C4.68745 17.5125 4.7062 17.6125 4.76557 17.6906C4.82495 17.7656 4.9187 17.8125 5.01557 17.8125H8.54995C8.6937 17.8125 8.81557 17.7187 8.85307 17.5812L9.7562 14.2844C9.7812 14.1906 9.76245 14.0906 9.70307 14.0125ZM5.42495 17.1875L6.1562 14.5156H9.0437L8.31245 17.1875H5.42495Z" fill="#7C9A82"></path><path d="M8.20937 15.1062C8.04375 14.8906 7.77812 14.7687 7.48437 14.7687C6.91562 14.7687 6.35625 15.2093 6.20937 15.7718C6.13125 16.0749 6.18437 16.3749 6.35312 16.5968C6.52187 16.8124 6.7875 16.9343 7.08125 16.9343C7.36562 16.9343 7.64687 16.8249 7.87812 16.6437C8.10625 16.4624 8.28125 16.2124 8.35625 15.9312C8.43437 15.6281 8.38125 15.3281 8.20937 15.1062ZM7.75312 15.7718C7.67812 16.0593 7.36562 16.3093 7.08125 16.3093C7.00937 16.3093 6.90937 16.2937 6.85 16.2156C6.79687 16.1468 6.78437 16.0437 6.8125 15.9312C6.8875 15.6437 7.2 15.3937 7.48437 15.3937C7.55625 15.3937 7.65625 15.4093 7.71562 15.4874C7.76875 15.5562 7.78125 15.6562 7.75312 15.7718Z" fill="#1A2921"></path><path d="M5.03815 17.8125H3.53784C3.36534 17.8125 3.22534 17.6725 3.22534 17.5C3.22534 17.3275 3.36534 17.1875 3.53784 17.1875H5.03815C5.21065 17.1875 5.35065 17.3275 5.35065 17.5C5.35065 17.6725 5.21065 17.8125 5.03815 17.8125Z" fill="#7C9A82"></path><path d="M4.28781 16.1637H3.4375C3.265 16.1637 3.125 16.0237 3.125 15.8512C3.125 15.6787 3.265 15.5387 3.4375 15.5387H4.28781C4.46031 15.5387 4.60031 15.6787 4.60031 15.8512C4.60031 16.0237 4.46031 16.1637 4.28781 16.1637Z" fill="#1A2921"></path><path d="M17.5135 17.8125C17.341 17.8125 17.201 17.6725 17.201 17.5C17.201 17.3275 17.341 17.1875 17.5135 17.1875C17.8151 17.1875 18.0698 16.8341 18.0698 16.4153C18.0698 14.9156 17.1204 13.6953 15.9535 13.6953H15.8379C15.6654 13.6953 15.5254 13.5553 15.5254 13.3828C15.5254 13.2103 15.6654 13.0703 15.8379 13.0703H15.9535C17.4651 13.0703 18.6948 14.5709 18.6948 16.4153C18.6948 17.1856 18.1648 17.8125 17.5135 17.8125Z" fill="#1A2921"></path><path d="M17.4188 11.225C17.1625 10.6187 16.5438 10.225 15.8407 10.225H15.8344C15.25 10.225 14.7094 10.5156 14.3875 11.0031C14.0563 11.5 14.0094 12.1156 14.2532 12.6937C14.5094 13.3031 15.1282 13.6969 15.8375 13.6969C16.2469 13.6969 16.6344 13.5531 16.9407 13.2968C17.0719 13.1906 17.1907 13.0656 17.2844 12.9187C17.6157 12.4219 17.6625 11.8031 17.4188 11.225ZM16.7625 12.5719C16.5563 12.8812 16.2125 13.0687 15.8375 13.0719H15.8313C15.3875 13.0719 14.9844 12.8219 14.8282 12.45C14.6657 12.0687 14.6969 11.6687 14.9094 11.3469C15.1157 11.0344 15.4625 10.85 15.8344 10.85H15.8407C16.2844 10.85 16.6875 11.1 16.8438 11.4687C17.0063 11.85 16.975 12.2531 16.7625 12.5719Z" fill="#1A2921"></path><path d="M11.3963 17.5H14.9332L14.0307 14.2025H10.4941L11.3963 17.5Z" fill="#7C9A82"></path><path d="M15.2344 17.4188L15.1719 17.1875L14.3313 14.1187C14.2938 13.9844 14.1719 13.8906 14.0313 13.8906H10.4938C10.3969 13.8906 10.3032 13.9344 10.2469 14.0125C10.1876 14.0906 10.1657 14.1906 10.1938 14.2844L11.0938 17.5812C11.1313 17.7187 11.2563 17.8125 11.3969 17.8125H14.9344C15.0313 17.8125 15.1219 17.7656 15.1813 17.6906C15.2407 17.6125 15.2594 17.5125 15.2344 17.4188ZM11.6344 17.1875L10.9032 14.5156H13.7938L14.5251 17.1875H11.6344Z" fill="#7C9A82"></path><path d="M13.7408 15.7718C13.5939 15.2093 13.0345 14.7687 12.4658 14.7687C12.1689 14.7687 11.9033 14.8906 11.7376 15.1062C11.6189 15.2624 11.5564 15.4531 11.5564 15.6593C11.5564 15.7499 11.5658 15.8406 11.5908 15.9312C11.7376 16.4937 12.297 16.9343 12.8658 16.9343C13.1626 16.9343 13.4283 16.8124 13.5939 16.5968C13.7658 16.3749 13.8189 16.0749 13.7408 15.7718ZM13.1001 16.2156C13.0376 16.2937 12.9376 16.3093 12.8658 16.3093C12.5845 16.3093 12.272 16.0593 12.197 15.7718C12.1658 15.6562 12.1783 15.5562 12.2314 15.4874C12.2939 15.4093 12.3939 15.3937 12.4658 15.3937C12.747 15.3937 13.0595 15.6437 13.1345 15.9312C13.1658 16.0437 13.1533 16.1468 13.1001 16.2156Z" fill="#1A2921"></path><path d="M16.4105 17.8125H14.9102C14.7377 17.8125 14.5977 17.6725 14.5977 17.5C14.5977 17.3275 14.7377 17.1875 14.9102 17.1875H16.4105C16.583 17.1875 16.723 17.3275 16.723 17.5C16.723 17.6725 16.583 17.8125 16.4105 17.8125Z" fill="#7C9A82"></path><path d="M16.5102 16.1637H15.6599C15.4874 16.1637 15.3474 16.0237 15.3474 15.8512C15.3474 15.6787 15.4874 15.5387 15.6599 15.5387H16.5102C16.6827 15.5387 16.8227 15.6787 16.8227 15.8512C16.8227 16.0237 16.6827 16.1637 16.5102 16.1637Z" fill="#1A2921"></path></svg>