<svg width="16" height="16" viewBox="0 0 16 16" fill="none" xmlns="http://www.w3.org/2000/svg">
<path fillRule="evenodd" clipRule="evenodd" d="M4.24541 8.56918C3.40497 6.51817 4.83076 4.17725 7.04116 4.17725H8.31873C10.5292 4.17725 11.955 6.51817 11.1145 8.56918C10.9436 8.98621 10.5429 9.27261 10.0824 9.27261H9.75329L9.19956 11.5892C9.03035 12.2971 8.41345 12.8172 7.67995 12.8172C6.94644 12.8172 6.32954 12.2971 6.16033 11.5892L5.60662 9.27261H5.27747C4.81702 9.27261 4.41629 8.98621 4.24541 8.56918ZM7.04116 5.13725C5.57805 5.13725 4.5271 6.72477 5.13373 8.20515C5.16443 8.28009 5.22618 8.31261 5.27747 8.31261H5.72737C6.1146 8.31261 6.42964 8.58633 6.51483 8.94288L7.09403 11.366C7.16635 11.6686 7.41761 11.8572 7.67995 11.8572C7.94228 11.8572 8.19355 11.6686 8.26587 11.366L8.84507 8.94288C8.93025 8.58633 9.24533 8.31261 9.63252 8.31261H10.0824C10.1337 8.31261 10.1955 8.28009 10.2262 8.20515C10.8328 6.72477 9.78184 5.13725 8.31873 5.13725H7.04116Z" fill="#907D78"/>
<path fillRule="evenodd" clipRule="evenodd" d="M7.67985 1.9373C7.06129 1.9373 6.55985 2.43874 6.55985 3.0573C6.55985 3.67586 7.06129 4.1773 7.67985 4.1773C8.29841 4.1773 8.79985 3.67586 8.79985 3.0573C8.79985 2.43874 8.29841 1.9373 7.67985 1.9373ZM5.59985 3.0573C5.59985 1.90854 6.53112 0.977295 7.67985 0.977295C8.82859 0.977295 9.75985 1.90854 9.75985 3.0573C9.75985 4.20605 8.82859 5.13729 7.67985 5.13729C6.53112 5.13729 5.59985 4.20605 5.59985 3.0573Z" fill="#907D78"/>
<path fillRule="evenodd" clipRule="evenodd" d="M3.19997 11.8573C3.46507 11.8573 3.67997 12.0722 3.67997 12.3373C3.67997 12.4401 3.72654 12.5781 3.89367 12.7475C4.06284 12.9189 4.33143 13.0953 4.70121 13.2538C5.43908 13.57 6.49187 13.7773 7.67997 13.7773C8.86807 13.7773 9.92087 13.57 10.6587 13.2538C11.0285 13.0953 11.2971 12.9189 11.4663 12.7475C11.6334 12.5781 11.68 12.4401 11.68 12.3373C11.68 12.0722 11.8949 11.8573 12.16 11.8573C12.4251 11.8573 12.64 12.0722 12.64 12.3373C12.64 12.7647 12.4358 13.1317 12.1495 13.4218C11.8653 13.7098 11.4778 13.9472 11.0369 14.1361C10.1533 14.5148 8.96611 14.7373 7.67997 14.7373C6.39381 14.7373 5.20662 14.5148 4.32305 14.1361C3.88212 13.9472 3.49463 13.7098 3.21039 13.4218C2.92412 13.1317 2.71997 12.7647 2.71997 12.3373C2.71997 12.0722 2.93488 11.8573 3.19997 11.8573Z" fill="#907D78"/>
</svg>
