<svg width="24" height="24" viewBox="0 0 24 24" fill="none" xmlns="http://www.w3.org/2000/svg">
<g style="mix-blend-mode:luminosity">
<path d="M9.90752 11.7263C8.95202 11.7263 8.02052 11.5155 7.20339 11.115L5.38014 11.6404C5.25677 11.676 5.12252 11.6456 5.02614 11.5594C4.93014 11.4735 4.88477 11.3438 4.90652 11.2166L5.20089 9.4995C4.55027 8.65163 4.20752 7.65825 4.20752 6.615C4.20752 3.79463 6.76464 1.5 9.90752 1.5C11.7004 1.5 13.4104 2.26837 14.4821 3.555C14.6149 3.71438 14.5931 3.95063 14.4341 4.08338C14.2744 4.21538 14.0385 4.194 13.9058 4.03538C12.975 2.9175 11.4803 2.25038 9.90752 2.25038C7.17789 2.25038 4.95752 4.20863 4.95752 6.61538C4.95752 7.539 5.27927 8.41913 5.88864 9.15975C5.95802 9.24413 5.98689 9.354 5.96852 9.46125L5.74689 10.7546L7.13739 10.3538C7.2304 10.3271 7.32977 10.3373 7.41527 10.3819C8.15739 10.7711 9.01915 10.9766 9.90752 10.9766C10.6571 10.9766 11.3738 10.8341 12.0375 10.5525C12.2745 10.4524 12.5606 10.6403 12.5606 10.8979C12.5606 11.0651 12.4523 11.2065 12.3019 11.2553C11.5526 11.568 10.7475 11.7263 9.90752 11.7263Z" fill="#1A2921"/>
<path d="M17.6063 9.29617L17.9738 11.1824L16.2675 10.7699C15.585 11.3549 13.3162 11.6737 12.1875 10.8974C13.9913 10.1362 15.24 8.50492 15.24 6.61492C15.24 5.55742 14.85 4.58242 14.1937 3.79492C16.755 3.79492 18.3187 6.41992 17.94 8.33617C17.8725 8.67742 17.76 8.99992 17.6063 9.29617Z" fill="#1A2921"/>
<path d="M17.9999 9.34867C18.1387 9.05242 18.2437 8.73742 18.3074 8.40742C18.5324 7.27867 18.1574 5.94742 17.3287 4.94242C16.5599 4.00867 15.5137 3.47242 14.3662 3.42742C14.3099 3.41992 14.2537 3.41992 14.1937 3.41992C14.0474 3.41992 13.9162 3.50242 13.8524 3.63742C13.7924 3.76867 13.8112 3.92242 13.9049 4.03492C14.5349 4.78867 14.8649 5.68117 14.8649 6.61492C14.8649 8.27992 13.7624 9.82492 12.0487 10.5487C12.0449 10.5487 12.0412 10.5487 12.0374 10.5524C11.9737 10.5824 11.9249 10.6237 11.8837 10.6762C11.8462 10.7287 11.8199 10.7924 11.8162 10.8599C11.8124 10.9049 11.8162 10.9462 11.8237 10.9912C11.8312 11.0174 11.8387 11.0437 11.8499 11.0699L11.8574 11.0774C11.8837 11.1262 11.9249 11.1712 11.9737 11.2049C11.9887 11.2162 12.0037 11.2237 12.0187 11.2312C12.0262 11.2387 12.0299 11.2387 12.0374 11.2424C12.0712 11.2687 12.1124 11.2912 12.1499 11.3137C12.6749 11.6099 13.3499 11.7337 14.0212 11.7337C14.9324 11.7337 15.8399 11.5049 16.3499 11.1749L17.8874 11.5462C18.0074 11.5762 18.1424 11.5424 18.2324 11.4524C18.3262 11.3662 18.3674 11.2349 18.3412 11.1112L17.9999 9.34867ZM16.0237 10.4849C15.5962 10.8524 14.1337 11.1449 13.0612 10.8749C14.6362 9.93367 15.6149 8.33242 15.6149 6.61492C15.6149 5.78617 15.3974 4.98742 14.9812 4.26742C15.6562 4.43992 16.2674 4.83367 16.7512 5.41867C17.4262 6.24367 17.7487 7.36117 17.5724 8.26492C17.5124 8.56867 17.4112 8.85742 17.2724 9.12367C17.2349 9.19867 17.2237 9.28492 17.2387 9.36742L17.4937 10.6799L16.3537 10.4062C16.2374 10.3762 16.1137 10.4062 16.0237 10.4849Z" fill="#1A2921"/>
<path d="M12.1876 11.2725H12.1838C11.9768 11.2725 11.8088 11.1045 11.8088 10.8975C11.8088 10.6905 11.9768 10.5225 12.1838 10.5225C12.3908 10.5225 12.5607 10.6905 12.5607 10.8975C12.5607 11.1045 12.3946 11.2725 12.1876 11.2725Z" fill="#1A2921"/>
<path d="M7.54614 7.37764C7.33914 7.37764 7.17114 7.20964 7.17114 7.00264V6.22339C7.17114 6.01639 7.33914 5.84839 7.54614 5.84839C7.75314 5.84839 7.92114 6.01639 7.92114 6.22339V7.00264C7.92114 7.20964 7.75314 7.37764 7.54614 7.37764Z" fill="#1A2921"/>
<path d="M9.91016 7.37764C9.70316 7.37764 9.53516 7.20964 9.53516 7.00264V6.22339C9.53516 6.01639 9.70316 5.84839 9.91016 5.84839C10.1172 5.84839 10.2852 6.01639 10.2852 6.22339V7.00264C10.2852 7.20964 10.1172 7.37764 9.91016 7.37764Z" fill="#1A2921"/>
<path d="M12.2742 7.37764C12.0672 7.37764 11.8992 7.20964 11.8992 7.00264V6.22339C11.8992 6.01639 12.0672 5.84839 12.2742 5.84839C12.4812 5.84839 12.6492 6.01639 12.6492 6.22339V7.00264C12.6492 7.20964 12.4812 7.37764 12.2742 7.37764Z" fill="#1A2921"/>
<path d="M2.92116 21.375C2.13966 21.375 1.50366 20.6231 1.50366 19.6983C1.50366 17.4851 2.97966 15.6843 4.79354 15.6843H4.93229C5.13929 15.6843 5.30729 15.8523 5.30729 16.0593C5.30729 16.2663 5.13929 16.4343 4.93229 16.4343H4.79354C3.39291 16.4343 2.25366 17.8987 2.25366 19.6983C2.25366 20.2005 2.55929 20.625 2.92116 20.625C3.12816 20.625 3.29616 20.793 3.29616 21C3.29616 21.207 3.12816 21.375 2.92116 21.375Z" fill="#1A2921"/>
<path d="M6.67124 13.2038C6.28499 12.6188 5.63624 12.27 4.93499 12.27H4.92749C4.08749 12.27 3.34124 12.7425 3.03374 13.47C2.74124 14.1638 2.80124 14.9063 3.19499 15.5025C3.31124 15.6788 3.44999 15.8288 3.60749 15.9563C3.97499 16.2638 4.43999 16.4363 4.93124 16.4363H4.93874C5.78249 16.4363 6.52499 15.9638 6.83624 15.2325C7.12874 14.5388 7.06874 13.8 6.67124 13.2038ZM6.14249 14.94C5.95499 15.3863 5.47124 15.6863 4.93124 15.6863C4.48499 15.6863 4.06874 15.4613 3.82124 15.0863C3.56624 14.7038 3.53249 14.22 3.72374 13.7625C3.91124 13.32 4.39499 13.02 4.92749 13.02H4.93499C5.38499 13.02 5.80124 13.2413 6.04874 13.6163C6.30374 14.0025 6.33749 14.4825 6.14249 14.94Z" fill="#1A2921"/>
<path d="M10.2616 21H6.01733L7.10033 17.043H11.3446L10.2616 21Z" fill="#7C9A82"/>
<path d="M11.6435 16.815C11.5723 16.7212 11.4598 16.6687 11.3435 16.6687H7.10229C6.92979 16.6687 6.78354 16.7812 6.73854 16.9425L5.72979 20.625L5.65479 20.9025C5.62479 21.015 5.64729 21.135 5.71854 21.2287C5.78979 21.3187 5.90229 21.375 6.01854 21.375H10.2598C10.4323 21.375 10.5785 21.2625 10.6235 21.0975L11.7073 17.1412C11.7373 17.0287 11.7148 16.9087 11.6435 16.815ZM6.50979 20.625L7.38729 17.4187H10.8523L9.97479 20.625H6.50979Z" fill="#7C9A82"/>
<path d="M9.85105 18.1274C9.6523 17.8687 9.33355 17.7224 8.98105 17.7224C8.29855 17.7224 7.6273 18.2512 7.45105 18.9262C7.3573 19.2899 7.42105 19.6499 7.62355 19.9162C7.82605 20.1749 8.1448 20.3212 8.4973 20.3212C8.83855 20.3212 9.17605 20.1899 9.45355 19.9724C9.7273 19.7549 9.9373 19.4549 10.0273 19.1174C10.1211 18.7537 10.0573 18.3937 9.85105 18.1274ZM9.30355 18.9262C9.21355 19.2712 8.83855 19.5712 8.4973 19.5712C8.41105 19.5712 8.29105 19.5524 8.2198 19.4587C8.15605 19.3762 8.14105 19.2524 8.1748 19.1174C8.2648 18.7724 8.6398 18.4724 8.98105 18.4724C9.0673 18.4724 9.1873 18.4912 9.25855 18.5849C9.3223 18.6674 9.3373 18.7874 9.30355 18.9262Z" fill="#1A2921"/>
<path d="M6.04574 21.375H4.24536C4.03836 21.375 3.87036 21.207 3.87036 21C3.87036 20.793 4.03836 20.625 4.24536 20.625H6.04574C6.25274 20.625 6.42074 20.793 6.42074 21C6.42074 21.207 6.25274 21.375 6.04574 21.375Z" fill="#7C9A82"/>
<path d="M5.14537 19.3965H4.125C3.918 19.3965 3.75 19.2285 3.75 19.0215C3.75 18.8145 3.918 18.6465 4.125 18.6465H5.14537C5.35237 18.6465 5.52037 18.8145 5.52037 19.0215C5.52037 19.2285 5.35237 19.3965 5.14537 19.3965Z" fill="#1A2921"/>
<path d="M21.0161 21.375C20.8091 21.375 20.6411 21.207 20.6411 21C20.6411 20.793 20.8091 20.625 21.0161 20.625C21.378 20.625 21.6836 20.2008 21.6836 19.6983C21.6836 17.8987 20.5444 16.4343 19.1441 16.4343H19.0054C18.7984 16.4343 18.6304 16.2663 18.6304 16.0593C18.6304 15.8523 18.7984 15.6843 19.0054 15.6843H19.1441C20.958 15.6843 22.4336 17.4851 22.4336 19.6983C22.4336 20.6227 21.7976 21.375 21.0161 21.375Z" fill="#1A2921"/>
<path d="M20.9025 13.47C20.595 12.7425 19.8525 12.27 19.0087 12.27H19.0012C18.3 12.27 17.6512 12.6188 17.265 13.2038C16.8675 13.8 16.8112 14.5388 17.1037 15.2325C17.4112 15.9638 18.1537 16.4363 19.005 16.4363C19.4962 16.4363 19.9612 16.2638 20.3287 15.9563C20.4862 15.8288 20.6287 15.6788 20.7412 15.5025C21.1387 14.9063 21.195 14.1638 20.9025 13.47ZM20.115 15.0863C19.8675 15.4575 19.455 15.6825 19.005 15.6863H18.9975C18.465 15.6863 17.9812 15.3863 17.7937 14.94C17.5987 14.4825 17.6362 14.0025 17.8912 13.6163C18.1387 13.2413 18.555 13.02 19.0012 13.02H19.0087C19.5412 13.02 20.025 13.32 20.2125 13.7625C20.4075 14.22 20.37 14.7038 20.115 15.0863Z" fill="#1A2921"/>
<path d="M13.6756 21H17.9199L16.8369 17.043H12.593L13.6756 21Z" fill="#7C9A82"/>
<path d="M18.2814 20.9025L18.2064 20.625L17.1976 16.9425C17.1526 16.7812 17.0064 16.6687 16.8376 16.6687H12.5926C12.4764 16.6687 12.3639 16.7212 12.2964 16.815C12.2251 16.9087 12.1989 17.0287 12.2326 17.1412L13.3126 21.0975C13.3576 21.2625 13.5076 21.375 13.6764 21.375H17.9214C18.0376 21.375 18.1464 21.3187 18.2176 21.2287C18.2889 21.135 18.3114 21.015 18.2814 20.9025ZM13.9614 20.625L13.0839 17.4187H16.5526L17.4301 20.625H13.9614Z" fill="#7C9A82"/>
<path d="M16.4889 18.9262C16.3127 18.2512 15.6414 17.7224 14.9589 17.7224C14.6027 17.7224 14.2839 17.8687 14.0852 18.1274C13.9427 18.3149 13.8677 18.5437 13.8677 18.7912C13.8677 18.8999 13.8789 19.0087 13.9089 19.1174C14.0852 19.7924 14.7564 20.3212 15.4389 20.3212C15.7952 20.3212 16.1139 20.1749 16.3127 19.9162C16.5189 19.6499 16.5827 19.2899 16.4889 18.9262ZM15.7202 19.4587C15.6452 19.5524 15.5252 19.5712 15.4389 19.5712C15.1014 19.5712 14.7264 19.2712 14.6364 18.9262C14.5989 18.7874 14.6139 18.6674 14.6777 18.5849C14.7527 18.4912 14.8727 18.4724 14.9589 18.4724C15.2964 18.4724 15.6714 18.7724 15.7614 19.1174C15.7989 19.2524 15.7839 19.3762 15.7202 19.4587Z" fill="#1A2921"/>
<path d="M19.6925 21.375H17.8921C17.6851 21.375 17.5171 21.207 17.5171 21C17.5171 20.793 17.6851 20.625 17.8921 20.625H19.6925C19.8995 20.625 20.0675 20.793 20.0675 21C20.0675 21.207 19.8995 21.375 19.6925 21.375Z" fill="#7C9A82"/>
<path d="M19.8124 19.3965H18.792C18.585 19.3965 18.417 19.2285 18.417 19.0215C18.417 18.8145 18.585 18.6465 18.792 18.6465H19.8124C20.0194 18.6465 20.1874 18.8145 20.1874 19.0215C20.1874 19.2285 20.0194 19.3965 19.8124 19.3965Z" fill="#1A2921"/>
</g>
</svg>
