<svg width="24" height="24" viewBox="0 0 24 24" fill="none" xmlns="http://www.w3.org/2000/svg">
<g style="mix-blend-mode:luminosity" opacity="0.8">
<path d="M22.125 13.0124H12.7384C12.531 13.0124 12.3634 12.8444 12.3634 12.6374C12.3634 12.4304 12.531 12.2624 12.7384 12.2624H21.75V11.0962H12.7339C12.5265 11.0962 12.3589 10.9282 12.3589 10.7212C12.3589 10.5142 12.5265 10.3462 12.7339 10.3462H22.125C22.3324 10.3462 22.5 10.5142 22.5 10.7212V12.6374C22.5 12.8444 22.3324 13.0124 22.125 13.0124Z" fill="#1A2921"/>
<path d="M4.125 13.0124H1.875C1.66763 13.0124 1.5 12.8444 1.5 12.6374V10.7212C1.5 10.5142 1.66763 10.3462 1.875 10.3462H4.1265C4.33387 10.3462 4.5015 10.5142 4.5015 10.7212C4.5015 10.9282 4.33387 11.0962 4.1265 11.0962H2.25V12.2624H4.125C4.33238 12.2624 4.5 12.4304 4.5 12.6374C4.5 12.8444 4.33238 13.0124 4.125 13.0124Z" fill="#1A2921"/>
<path d="M20.2513 11.0963H15.0714C14.9447 11.0963 14.8265 11.0321 14.7572 10.9256C14.6878 10.8195 14.6769 10.6853 14.7287 10.5694L15.6227 8.55076C15.6827 8.41501 15.8173 8.32764 15.9654 8.32764H19.3577C19.5062 8.32764 19.6404 8.41501 19.7004 8.55076L20.5944 10.5694C20.6462 10.6853 20.6349 10.8195 20.5659 10.9256C20.4965 11.0321 20.3784 11.0963 20.2517 11.0963H20.2513ZM15.6474 10.3463H19.6753L19.1135 9.07764H16.2092L15.6474 10.3463Z" fill="#1A2921"/>
<path d="M22.5 2.57625V6.79125H12.8213V2.57625C12.8213 1.98375 13.305 1.5 13.8975 1.5H21.4238C22.0163 1.5 22.5 1.98375 22.5 2.57625Z" fill="#1A2921"/>
<path d="M12.8213 7.54126H22.5V8.00251C22.5 8.59501 22.0163 9.07876 21.4238 9.07876H13.8975C13.305 9.07876 12.8213 8.59501 12.8213 8.00251V7.54126Z" fill="#1A2921"/>
<path d="M3 21.3746C2.79263 21.3746 2.625 21.2066 2.625 20.9996V12.6375C2.625 12.4305 2.79263 12.2625 3 12.2625C3.20737 12.2625 3.375 12.4305 3.375 12.6375V20.9996C3.375 21.2066 3.20737 21.3746 3 21.3746Z" fill="#1A2921"/>
<path d="M21.3432 21.3746H14.238C14.0307 21.3746 13.863 21.2066 13.863 20.9996V12.636C13.863 12.429 14.0307 12.261 14.238 12.261H21.3432C21.5505 12.261 21.7182 12.429 21.7182 12.636V20.9996C21.7182 21.2066 21.5505 21.3746 21.3432 21.3746ZM14.613 20.6246H20.9682V13.011H14.613V20.6246Z" fill="#1A2921"/>
<path d="M21.3432 15.7998H14.238C14.0307 15.7998 13.863 15.6318 13.863 15.4248C13.863 15.2178 14.0307 15.0498 14.238 15.0498H21.3432C21.5505 15.0498 21.7182 15.2178 21.7182 15.4248C21.7182 15.6318 21.5505 15.7998 21.3432 15.7998Z" fill="#1A2921"/>
<path d="M21.3432 18.5872H14.238C14.0307 18.5872 13.863 18.4192 13.863 18.2122C13.863 18.0052 14.0307 17.8372 14.238 17.8372H21.3432C21.5505 17.8372 21.7182 18.0052 21.7182 18.2122C21.7182 18.4192 21.5505 18.5872 21.3432 18.5872Z" fill="#1A2921"/>
<path d="M17.8985 14.3457H17.3499C17.1425 14.3457 16.9749 14.1777 16.9749 13.9707C16.9749 13.7637 17.1425 13.5957 17.3499 13.5957H17.8985C18.1059 13.5957 18.2735 13.7637 18.2735 13.9707C18.2735 14.1777 18.1059 14.3457 17.8985 14.3457Z" fill="#1A2921"/>
<path d="M17.8985 17.1926H17.3499C17.1425 17.1926 16.9749 17.0246 16.9749 16.8176C16.9749 16.6106 17.1425 16.4426 17.3499 16.4426H17.8985C18.1059 16.4426 18.2735 16.6106 18.2735 16.8176C18.2735 17.0246 18.1059 17.1926 17.8985 17.1926Z" fill="#1A2921"/>
<path d="M17.8985 20.0396H17.3499C17.1425 20.0396 16.9749 19.8716 16.9749 19.6646C16.9749 19.4576 17.1425 19.2896 17.3499 19.2896H17.8985C18.1059 19.2896 18.2735 19.4576 18.2735 19.6646C18.2735 19.8716 18.1059 20.0396 17.8985 20.0396Z" fill="#1A2921"/>
<path d="M11.5178 19.7403L8.80509 19.1928V15.8137H10.1802C11.3532 15.8137 12.3072 14.8597 12.3072 13.6867C12.3072 13.4797 12.1396 13.3117 11.9322 13.3117H8.80509V12.5831H10.0865C11.0416 12.5831 11.8186 11.8061 11.8186 10.8509V7.93757C11.8186 6.06932 10.2983 4.54907 8.43009 4.54907C6.56184 4.54907 5.04196 6.06895 5.04196 7.93757V10.8509C5.04196 11.8061 5.81896 12.5831 6.77409 12.5831H8.05509V13.3117H4.92871C4.72134 13.3117 4.55371 13.4797 4.55371 13.6867C4.55371 14.8593 5.50771 15.8137 6.68034 15.8137H8.05509V19.1932L5.34271 19.7407C5.16796 19.7759 5.04196 19.9297 5.04196 20.1082V20.9999C5.04196 21.2069 5.20959 21.3749 5.41696 21.3749C5.62434 21.3749 5.79196 21.2069 5.79196 20.9999V20.4149L8.05509 19.9578V20.9999C8.05509 21.2069 8.22271 21.3749 8.43009 21.3749C8.63746 21.3749 8.80509 21.2069 8.80509 20.9999V19.9578L11.0686 20.4149V20.9999C11.0686 21.2069 11.2362 21.3749 11.4436 21.3749C11.651 21.3749 11.8186 21.2069 11.8186 20.9999V20.1082C11.8186 19.9297 11.6926 19.7756 11.5178 19.7403Z" fill="#7C9A82"/>
</g>
</svg>
