<svg width="24" height="24" viewBox="0 0 24 24" fill="none" xmlns="http://www.w3.org/2000/svg">
<g opacity="0.8">
<path d="M8.89498 22.5594H3.85873C3.74135 22.5594 3.63035 22.5043 3.55948 22.4105C3.4886 22.3164 3.46573 22.1949 3.49798 22.0816L3.92173 20.5966C4.1051 19.9595 4.56373 19.4544 5.17948 19.211C5.48398 19.0918 5.7731 19.0074 6.05998 18.9519C6.65923 18.8371 7.26598 18.8375 7.86373 18.9519C8.15098 19.0074 8.4401 19.0921 8.72435 19.2031C9.19235 19.3858 9.57035 19.715 9.80773 20.138C9.90935 20.3184 9.84485 20.5471 9.6641 20.6484C9.48448 20.7496 9.25535 20.6863 9.15373 20.5048C9.0011 20.2329 8.75848 20.0214 8.47085 19.9093C8.20985 19.8073 7.96385 19.7353 7.72198 19.688C7.22548 19.5928 6.69973 19.5924 6.20248 19.688C5.9606 19.7349 5.71535 19.8065 5.47385 19.901C5.05835 20.0653 4.7621 20.3919 4.6436 20.8029L4.35635 21.8094H8.89535C9.10273 21.8094 9.27035 21.977 9.27035 22.1844C9.27035 22.3918 9.10273 22.5594 8.89535 22.5594H8.89498Z" fill="#1A2921"/>
<path d="M6.96104 18.6654C6.05392 18.6654 5.31592 17.927 5.31592 17.0199C5.31592 16.1128 6.05392 15.3748 6.96104 15.3748C7.86817 15.3748 8.60617 16.1128 8.60617 17.0199C8.60617 17.927 7.86817 18.6654 6.96104 18.6654ZM6.96104 16.1251C6.46754 16.1251 6.06592 16.5264 6.06592 17.0203C6.06592 17.5141 6.46717 17.9158 6.96104 17.9158C7.45492 17.9158 7.85617 17.5141 7.85617 17.0203C7.85617 16.5264 7.45492 16.1251 6.96104 16.1251Z" fill="#1A2921"/>
<path d="M15.4642 22.0802L15.0397 20.5964C14.8601 19.969 14.3902 19.4507 13.7617 19.2017C13.4838 19.093 13.1943 19.009 12.9011 18.9516C12.303 18.8376 11.6962 18.8372 11.0973 18.9516C10.8052 19.0086 10.5157 19.0926 10.2176 19.2096C9.60934 19.4504 9.13909 19.9682 8.95984 20.5952L8.53534 22.0795C8.50309 22.1927 8.52597 22.3146 8.59647 22.4087C8.66734 22.5025 8.77834 22.5576 8.89609 22.5576H15.1035C15.2208 22.5576 15.3318 22.5025 15.4031 22.4087C15.4736 22.3146 15.4965 22.1927 15.4642 22.0795V22.0802Z" fill="#1A2921"/>
<path d="M11.9993 15.3752C11.0921 15.3752 10.3541 16.1132 10.3541 17.0204C10.3541 17.9275 11.0921 18.6659 11.9993 18.6659C12.9064 18.6659 13.6444 17.9275 13.6444 17.0204C13.6444 16.1132 12.9064 15.3752 11.9993 15.3752Z" fill="#1A2921"/>
<path d="M20.1412 22.5593H15.1049C14.8976 22.5593 14.7299 22.3917 14.7299 22.1843C14.7299 21.9769 14.8976 21.8093 15.1049 21.8093H19.6439L19.3563 20.802C19.2386 20.3914 18.9423 20.0652 18.5441 19.9077C18.2849 19.806 18.0393 19.7344 17.7971 19.6872C17.3006 19.5919 16.7748 19.5915 16.2776 19.6872C16.0361 19.734 15.7904 19.8057 15.5482 19.9002C15.2418 20.0198 14.9992 20.2317 14.8466 20.5032C14.7449 20.6839 14.5154 20.7477 14.3362 20.6468C14.1558 20.5452 14.0913 20.3168 14.1926 20.1364C14.4299 19.7134 14.8079 19.3842 15.2572 19.209C15.5602 19.0905 15.8493 19.0058 16.1358 18.9507C16.7351 18.8359 17.3418 18.8363 17.9396 18.9507C18.2272 19.0065 18.5163 19.0909 18.8002 19.2019C19.4362 19.4539 19.8948 19.959 20.0778 20.5954L20.5019 22.0812C20.5342 22.1944 20.5113 22.3159 20.4404 22.41C20.3699 22.5038 20.2589 22.5593 20.1412 22.5593Z" fill="#1A2921"/>
<path d="M17.0373 18.6654C16.1302 18.6654 15.3922 17.927 15.3922 17.0199C15.3922 16.1128 16.1302 15.3748 17.0373 15.3748C17.9445 15.3748 18.6828 16.1128 18.6828 17.0199C18.6828 17.927 17.9445 18.6654 17.0373 18.6654ZM17.0373 16.1251C16.5438 16.1251 16.1422 16.5264 16.1422 17.0203C16.1422 17.5141 16.5435 17.9158 17.0373 17.9158C17.5312 17.9158 17.9328 17.5141 17.9328 17.0203C17.9328 16.5264 17.5312 16.1251 17.0373 16.1251Z" fill="#1A2921"/>
<path d="M5.60625 14.3359C5.54287 14.3359 5.47988 14.3198 5.42288 14.2879L3.63675 13.2855H1.875C1.66763 13.2855 1.5 13.1179 1.5 12.9105V9.09302C1.5 8.88564 1.66763 8.71802 1.875 8.71802H6.96112C7.1685 8.71802 7.33612 8.88564 7.33612 9.09302C7.33612 9.30039 7.1685 9.46802 6.96112 9.46802H2.25V12.5355H3.735C3.7995 12.5355 3.8625 12.552 3.91838 12.5835L5.23125 13.3204V12.9105C5.23125 12.7031 5.39887 12.5355 5.60625 12.5355H6.0195C6.22687 12.5355 6.3945 12.7031 6.3945 12.9105C6.3945 13.1179 6.22687 13.2855 6.0195 13.2855H5.98125V13.9609C5.98125 14.094 5.91075 14.2174 5.79562 14.2845C5.7375 14.3186 5.67188 14.3359 5.60625 14.3359Z" fill="#1A2921"/>
<path d="M6.01952 10.7944H3.32214C3.11477 10.7944 2.94714 10.6268 2.94714 10.4194C2.94714 10.2121 3.11477 10.0444 3.32214 10.0444H6.01952C6.22689 10.0444 6.39452 10.2121 6.39452 10.4194C6.39452 10.6268 6.22689 10.7944 6.01952 10.7944Z" fill="#1A2921"/>
<path d="M6.01952 11.9602H3.32214C3.11477 11.9602 2.94714 11.7926 2.94714 11.5852C2.94714 11.3778 3.11477 11.2102 3.32214 11.2102H6.01952C6.22689 11.2102 6.39452 11.3778 6.39452 11.5852C6.39452 11.7926 6.22689 11.9602 6.01952 11.9602Z" fill="#1A2921"/>
<path d="M18.3937 14.3359C18.3281 14.3359 18.2625 14.3186 18.2043 14.2845C18.0892 14.217 18.0187 14.094 18.0187 13.9609V13.2686C17.8661 13.221 17.7555 13.0785 17.7555 12.9105C17.7555 12.7031 17.9231 12.5355 18.1305 12.5355H18.3937C18.6011 12.5355 18.7687 12.7031 18.7687 12.9105V13.3204L20.0816 12.5835C20.1375 12.552 20.2005 12.5355 20.265 12.5355H21.75V9.46802H17.0381C16.8307 9.46802 16.6631 9.30039 16.6631 9.09302C16.6631 8.88564 16.8307 8.71802 17.0381 8.71802H22.125C22.3323 8.71802 22.5 8.88564 22.5 9.09302V12.9105C22.5 13.1179 22.3323 13.2855 22.125 13.2855H20.3632L18.5771 14.2879C18.5201 14.3198 18.4571 14.3359 18.3937 14.3359Z" fill="#1A2921"/>
<path d="M20.6782 10.7944H17.9808C17.7735 10.7944 17.6058 10.6268 17.6058 10.4194C17.6058 10.2121 17.7735 10.0444 17.9808 10.0444H20.6782C20.8856 10.0444 21.0532 10.2121 21.0532 10.4194C21.0532 10.6268 20.8856 10.7944 20.6782 10.7944Z" fill="#1A2921"/>
<path d="M20.6782 11.9602H17.9808C17.7735 11.9602 17.6058 11.7926 17.6058 11.5852C17.6058 11.3778 17.7735 11.2102 17.9808 11.2102H20.6782C20.8856 11.2102 21.0532 11.3778 21.0532 11.5852C21.0532 11.7926 20.8856 11.9602 20.6782 11.9602Z" fill="#1A2921"/>
<path d="M17.1593 12.9644L16.503 10.6702C16.2435 9.76115 15.5618 9.01003 14.6494 8.64853C14.2298 8.48428 13.7948 8.35828 13.3549 8.2724C12.4564 8.10028 11.5444 8.10028 10.6448 8.2724C10.2056 8.3579 9.77063 8.4839 9.32025 8.66053C8.43825 9.00965 7.75688 9.76078 7.49775 10.669L6.84113 12.9637C6.8085 13.0769 6.83138 13.1988 6.90188 13.2925C6.97275 13.3867 7.08375 13.4418 7.2015 13.4418H16.7993C16.9166 13.4418 17.0276 13.3867 17.0989 13.2925C17.1694 13.1988 17.1923 13.0769 17.1596 12.9637L17.1593 12.9644Z" fill="#7C9A82"/>
<path d="M10.5615 10.9377C10.5537 10.8071 10.6146 10.6764 10.7317 10.6003L11.8261 9.88974C11.9624 9.80114 12.1403 9.81072 12.2663 9.91284L13.2726 10.728C13.4337 10.8584 13.4581 11.0951 13.328 11.2555C13.1975 11.4162 12.9612 11.4414 12.8005 11.3109L12.0059 10.6671L11.1396 11.229C10.966 11.3416 10.7335 11.2925 10.6209 11.1186C10.5844 11.0622 10.5649 10.9999 10.5611 10.9374L10.5615 10.9377Z" fill="#1A2921"/>
<path d="M11.9989 7.62037C10.3114 7.62037 8.93848 6.24788 8.93848 4.56038C8.93848 2.87288 10.3114 1.5 11.9989 1.5C13.6864 1.5 15.0589 2.87288 15.0589 4.56038C15.0589 6.24788 13.6864 7.62037 11.9989 7.62037ZM11.9989 2.25C10.725 2.25 9.68848 3.2865 9.68848 4.56038C9.68848 5.83425 10.725 6.87037 11.9989 6.87037C13.2727 6.87037 14.3089 5.83388 14.3089 4.56038C14.3089 3.28688 13.2724 2.25 11.9989 2.25Z" fill="#1A2921"/>
</g>
</svg>
