<svg width="24" height="24" viewBox="0 0 24 24" fill="none" xmlns="http://www.w3.org/2000/svg">
<g style="mix-blend-mode:luminosity" opacity="0.8">
<path d="M9.05325 16.6876H3C2.17275 16.6876 1.5 16.0149 1.5 15.1876V14.6814C1.5 14.4744 1.668 14.3064 1.875 14.3064H10.3481C10.5551 14.3064 10.7231 14.4744 10.7231 14.6814C10.7231 14.8884 10.5551 15.0564 10.3481 15.0564H2.25V15.1876C2.25 15.6013 2.58637 15.9376 3 15.9376H9.05325C9.26025 15.9376 9.42825 16.1056 9.42825 16.3126C9.42825 16.5196 9.26025 16.6876 9.05325 16.6876Z" fill="#1A2921"/>
<path d="M1.875 15.0563C1.668 15.0563 1.5 14.8883 1.5 14.6813V6.86255C1.5 6.0353 2.17275 5.36255 3 5.36255H13.6088C14.436 5.36255 15.1088 6.0353 15.1088 6.86255C15.1088 7.06955 14.9408 7.23755 14.7338 7.23755C14.5268 7.23755 14.3588 7.06955 14.3588 6.86255C14.3588 6.44892 14.0224 6.11255 13.6088 6.11255H3C2.58637 6.11255 2.25 6.44892 2.25 6.86255V14.6813C2.25 14.8883 2.082 15.0563 1.875 15.0563Z" fill="#1A2921"/>
<path d="M8.30438 19.3291H4.125C3.918 19.3291 3.75 19.1611 3.75 18.9541C3.75 18.7471 3.918 18.5791 4.125 18.5791H8.30438C8.51137 18.5791 8.67938 18.7471 8.67938 18.9541C8.67938 19.1611 8.51137 19.3291 8.30438 19.3291Z" fill="#1A2921"/>
<path d="M5.76791 19.3291C5.74054 19.3291 5.71316 19.3261 5.68504 19.3201C5.48291 19.2747 5.35617 19.0741 5.40154 18.872L5.99592 16.2305C6.04129 16.0283 6.24191 15.9023 6.44404 15.947C6.64616 15.9923 6.77292 16.193 6.72754 16.3951L6.13316 19.0366C6.09416 19.211 5.93966 19.3291 5.76791 19.3291Z" fill="#1A2921"/>
<path d="M6.78223 10.3089L6.64085 9.75986C6.5501 9.40774 6.33785 9.11449 6.05848 8.91311C6.18073 8.73836 6.25385 8.52649 6.25385 8.29736C6.25385 7.70299 5.7701 7.21924 5.17573 7.21924C4.58135 7.21924 4.0976 7.70299 4.0976 8.29736C4.0976 8.52649 4.17073 8.73836 4.29335 8.91349C4.01398 9.11486 3.8021 9.40811 3.71135 9.76024L3.56998 10.3092C3.5411 10.4214 3.56548 10.541 3.63673 10.6325C3.7076 10.7244 3.8171 10.778 3.93335 10.778H6.41923C6.5351 10.778 6.6446 10.7244 6.71585 10.6325C6.78673 10.541 6.81148 10.4217 6.7826 10.3092L6.78223 10.3089Z" fill="#1A2921"/>
<path d="M6.78295 14.5867L6.6412 14.0414C6.55157 13.6878 6.33932 13.3934 6.05883 13.1917C6.18107 13.0169 6.2542 12.8051 6.2542 12.5759C6.2542 11.9816 5.77045 11.4978 5.17608 11.4978C4.5817 11.4978 4.09795 11.9816 4.09795 12.5759C4.09795 12.8054 4.17108 13.0169 4.2937 13.1921C4.27833 13.2033 4.2607 13.2116 4.2457 13.2236C3.98357 13.4294 3.7942 13.7201 3.7132 14.0392L3.5707 14.5867C3.54145 14.6992 3.56583 14.8188 3.63708 14.9107C3.70795 15.0026 3.81745 15.0562 3.9337 15.0562H6.41995C6.5362 15.0562 6.6457 15.0022 6.71657 14.9107C6.78745 14.8188 6.8122 14.6992 6.78295 14.5867Z" fill="#1A2921"/>
<path d="M8.30591 14.9592C8.09891 14.9592 7.93091 14.7912 7.93091 14.5842V5.73682C7.93091 5.52982 8.09891 5.36182 8.30591 5.36182C8.51291 5.36182 8.68091 5.52982 8.68091 5.73682V14.5842C8.68091 14.7912 8.51291 14.9592 8.30591 14.9592Z" fill="#1A2921"/>
<path d="M8.30585 10.7771H1.8761C1.6691 10.7771 1.5011 10.6091 1.5011 10.4021C1.5011 10.1951 1.6691 10.0271 1.8761 10.0271H8.30585C8.51285 10.0271 8.68085 10.1951 8.68085 10.4021C8.68085 10.6091 8.51285 10.7771 8.30585 10.7771Z" fill="#1A2921"/>
<path d="M21.6691 17.5065C21.3758 15.8708 20.0892 14.631 18.4962 14.361C19.1146 13.6916 19.4656 12.8123 19.4656 11.8733C19.4656 9.84339 17.8141 8.19189 15.7846 8.19189C13.7551 8.19189 12.1032 9.84339 12.1032 11.8733C12.1032 12.8123 12.4546 13.6916 13.0726 14.361C11.9948 14.5425 11.0419 15.1684 10.4464 16.1104C10.1716 16.5401 9.98706 17.0096 9.89818 17.5069L9.07356 22.0583C9.05368 22.1678 9.08331 22.2803 9.15456 22.3654C9.22581 22.4509 9.33118 22.5 9.44256 22.5H22.1251C22.2361 22.5 22.3418 22.4509 22.4131 22.3654C22.4843 22.2799 22.5139 22.1674 22.4941 22.0583L21.6691 17.5065Z" fill="#7C9A82"/>
<path d="M12.3379 21.3752C12.3158 21.3752 12.2933 21.3733 12.2708 21.3692C12.0672 21.3324 11.9318 21.1371 11.9685 20.9334L12.4898 18.0534C12.5265 17.8498 12.7204 17.7133 12.9255 17.7512C13.1292 17.7879 13.2645 17.9833 13.2278 18.1869L12.7065 21.0669C12.6739 21.2481 12.516 21.3752 12.3379 21.3752Z" fill="#1A2921"/>
<path d="M19.2312 21.375C19.0531 21.375 18.8952 21.2479 18.8626 21.0668L18.3413 18.1868C18.3042 17.9832 18.4396 17.7878 18.6436 17.751C18.8487 17.7128 19.0426 17.8497 19.0793 18.0533L19.6006 20.9333C19.6377 21.1369 19.5023 21.3323 19.2983 21.369C19.2755 21.3732 19.2533 21.375 19.2312 21.375Z" fill="#1A2921"/>
<path d="M15.785 15.4838C15.5378 15.4838 15.2915 15.4482 15.0732 15.3815C14.8752 15.3203 14.7642 15.1107 14.825 14.9127C14.8861 14.7147 15.0953 14.6033 15.2937 14.6645C15.5896 14.7556 15.9796 14.7556 16.2785 14.6645C16.4761 14.6033 16.6861 14.7158 16.7468 14.9138C16.8072 15.1118 16.6955 15.3215 16.4975 15.3822C16.2747 15.4501 16.0351 15.4846 15.785 15.4846V15.4838Z" fill="#1A2921"/>
<path d="M8.77228 4.76325H7.83853C6.93891 4.76325 6.20691 4.03125 6.20691 3.13162C6.20691 2.232 6.93891 1.5 7.83853 1.5H8.77228C9.67191 1.5 10.4039 2.232 10.4039 3.13162C10.4039 4.03125 9.67191 4.76325 8.77228 4.76325ZM7.83853 2.25C7.35253 2.25 6.95691 2.64562 6.95691 3.13162C6.95691 3.61762 7.35253 4.01325 7.83853 4.01325H8.77228C9.25828 4.01325 9.65391 3.61762 9.65391 3.13162C9.65391 2.64562 9.25828 2.25 8.77228 2.25H7.83853Z" fill="#1A2921"/>
<path d="M10.3481 6.11187H6.26434C6.11884 6.11187 5.98647 6.02787 5.92497 5.89624C5.86347 5.76462 5.88297 5.60899 5.97597 5.49724L7.14972 4.08462C7.28209 3.92562 7.51834 3.90349 7.67772 4.03587C7.83709 4.16824 7.85884 4.40449 7.72647 4.56387L7.06347 5.36187H9.54859L8.88222 4.56087C8.74984 4.40149 8.77159 4.16524 8.93059 4.03249C9.08959 3.89974 9.32622 3.92149 9.45897 4.08087L10.6365 5.49649C10.7295 5.60824 10.7493 5.76387 10.6875 5.89549C10.6256 6.02712 10.4932 6.11112 10.3481 6.11112V6.11187Z" fill="#1A2921"/>
<path d="M8.4135 3.50659H8.19788C7.99088 3.50659 7.82288 3.33859 7.82288 3.13159C7.82288 2.92459 7.99088 2.75659 8.19788 2.75659H8.4135C8.6205 2.75659 8.7885 2.92459 8.7885 3.13159C8.7885 3.33859 8.6205 3.50659 8.4135 3.50659Z" fill="#1A2921"/>
<path d="M20.4963 20.25H19.0278C18.8208 20.25 18.6528 20.082 18.6528 19.875C18.6528 19.668 18.8208 19.5 19.0278 19.5H20.4963C20.7033 19.5 20.8713 19.668 20.8713 19.875C20.8713 20.082 20.7033 20.25 20.4963 20.25Z" fill="#1A2921"/>
<path d="M12.5359 20.25H11.0674C10.8604 20.25 10.6924 20.082 10.6924 19.875C10.6924 19.668 10.8604 19.5 11.0674 19.5H12.5359C12.7429 19.5 12.9109 19.668 12.9109 19.875C12.9109 20.082 12.7429 20.25 12.5359 20.25Z" fill="#1A2921"/>
</g>
</svg>
